# xmcd CD database file
#
# Track frame offsets:
#	150
#	11075
#	42710
#	60575
#	102842
#	126586
#	161859
#	183046
#	205467
#	226781
#	252179
#
# Disc length: 3546 seconds
#
# Revision: 0
# Processed by: cddbd v1.5.2PL0 Copyright (c) Steve Scherf et al.
# Submitted via: CDex 1.51
#
DISCID=980dd80b
DTITLE=Ben Goldberg - Speech Communication
DYEAR=2009
DGENRE=Jazz
TTITLE0=Language Behavior
TTITLE1=Habituary
TTITLE2=Amr
TTITLE3=Head And Tails
TTITLE4=Avodyah
TTITLE5=Song #1
TTITLE6=Papermaker
TTITLE7=Drops Off
TTITLE8=Palindromic
TTITLE9=Snow Note
TTITLE10=Bongoloid Lens
EXTD=YEAR: 2009
EXTT0=
EXTT1=
EXTT2=
EXTT3=
EXTT4=
EXTT5=
EXTT6=
EXTT7=
EXTT8=
EXTT9=
EXTT10=
PLAYORDER=
